<?xml version="1.0" encoding="utf-8"?>
<!-- Generator: Adobe Illustrator 24.0.2, SVG Export Plug-In . SVG Version: 6.00 Build 0)  -->
<svg version="1.1" id="Layer_1" xmlns="http://www.w3.org/2000/svg" xmlns:xlink="http://www.w3.org/1999/xlink" x="0px" y="0px"
	 viewBox="0 0 174 40" style="enable-background:new 0 0 174 40;" xml:space="preserve">
<style type="text/css">
	.st0{fill:#231F20;}
</style>
<g>
	<path class="st0" d="M0,19.1V0.7h3.1c3.3,0,4.2,1.8,4.2,4.9c0,1.8-0.4,3.6-2.3,4.1v0c2.1,0.7,2.6,2.3,2.6,4.3c0,3.4-1.2,5-4.6,5H0z
		 M2.7,2.8H2.3v6c2.3,0.1,2.6-1.3,2.6-3.3C4.9,4.1,4.4,2.7,2.7,2.8z M2.3,17C4.4,17.1,5,16,5,14c0-2-0.4-3.3-2.7-3.2V17z"/>
	<path class="st0" d="M12.7,0.7h2.9c1.8,0,4.6,0.1,4.6,4.7c0,1.7-0.5,4.4-2.5,4.7l3.4,9h-2.5l-3.3-9h0v9h-2.4V0.7z M17.6,5.9
		c0-1.8-0.2-3.2-2.1-3.2h-0.4v6.1C16.9,9,17.6,7.8,17.6,5.9z"/>
	<path class="st0" d="M31.8,0.7v2.1h-4.1v5.8h3.7v2.1h-3.7V17h4.1v2.1h-6.6V0.7H31.8z"/>
	<path class="st0" d="M40.7,0.7l4,18.4h-2.5l-0.7-3.6h-3.7l-0.7,3.6h-2.4l4-18.4H40.7z M40.7,10.9l-0.9-6.7h0l-1.5,9.4h2.9
		L40.7,10.9z"/>
	<path class="st0" d="M54.4,3.5c-0.6-0.5-1.2-0.8-2.1-0.8c-1.3,0-2.2,1.1-2.2,2.4c0,0.8,0.2,1.4,0.7,2l1.9,2
		c1.7,1.7,2.6,2.9,2.6,5.4c0,2.6-1.6,4.8-4.3,4.8c-1,0-1.9-0.3-2.7-0.9V16c0.7,0.5,1.5,1,2.4,1c1.5,0,2.1-1.2,2.1-2.6
		c0-3.7-5.2-4.4-5.2-9.2c0-2.6,1.4-4.7,4.1-4.7c0.9,0,1.8,0.1,2.6,0.6L54.4,3.5z"/>
	<path class="st0" d="M66.3,0.7v2.1h-2.8v16.3h-2.4V2.8h-2.9V0.7H66.3z"/>
	<path class="st0" d="M82.1,0.7l4,18.4h-2.5l-0.7-3.6h-3.7l-0.7,3.6h-2.4l4-18.4H82.1z M82.1,10.9l-0.9-6.7h0l-1.5,9.4h2.9
		L82.1,10.9z"/>
	<path class="st0" d="M92.2,6.2l0.4,6.2v6.8h-2.4V0.7h2.3l4.3,14l0,0l-0.6-7.4V0.7h2.4v18.4h-2.3L92.1,4.9l0,0L92.2,6.2z"/>
	<path class="st0" d="M106.9,0.7c2.9,0,6.2,0.2,6.2,9.5c0,8.5-2.8,8.9-7.2,8.9h-1.7V0.7H106.9z M106.6,2.8V17c4,0.1,3.9-3.7,3.9-6.8
		C110.4,7.4,110.7,2.5,106.6,2.8z"/>
	<path class="st0" d="M125.4,19.1V0.7h3.1c3.3,0,4.2,1.8,4.2,4.9c0,1.8-0.4,3.6-2.3,4.1v0c2.1,0.7,2.6,2.3,2.6,4.3
		c0,3.4-1.2,5-4.6,5H125.4z M128.1,2.8h-0.4v6c2.3,0.1,2.6-1.3,2.6-3.3C130.3,4.1,129.8,2.7,128.1,2.8z M127.7,17
		c2.1,0.1,2.7-1,2.7-3c0-2-0.4-3.3-2.7-3.2V17z"/>
	<path class="st0" d="M147.2,9.9c0,3.3,0,9.5-4.8,9.5s-4.8-6.1-4.8-9.5c0-3.3,0-9.5,4.8-9.5S147.2,6.6,147.2,9.9z M140.2,9.9
		c0,3.9,0.3,7.2,2.2,7.2c1.9,0,2.2-3.2,2.2-7.2c0-3.9-0.3-7.2-2.2-7.2C140.4,2.7,140.2,6,140.2,9.9z"/>
	<path class="st0" d="M154.9,0.7c2.9,0,6.2,0.2,6.2,9.5c0,8.5-2.8,8.9-7.2,8.9h-1.7V0.7H154.9z M154.6,2.8V17c4,0.1,3.9-3.7,3.9-6.8
		C158.4,7.4,158.7,2.5,154.6,2.8z"/>
	<path class="st0" d="M167.1,0.7l2.2,8.5h0l0.4-2.4l1.6-6.2h2.6l-3.4,10.5v7.9h-2.4v-7.9l-3.6-10.5H167.1z"/>
</g>
<g>
	<path class="st0" d="M44,28.9c-0.4-0.3-0.8-0.5-1.4-0.5c-0.9,0-1.5,0.7-1.5,1.6c0,0.5,0.1,0.9,0.5,1.4l1.3,1.4
		c1.1,1.1,1.8,2,1.8,3.6c0,1.8-1.1,3.3-2.9,3.3c-0.6,0-1.3-0.2-1.8-0.6v-1.7c0.5,0.4,1,0.6,1.6,0.6c1,0,1.5-0.8,1.5-1.7
		c0-2.5-3.5-3-3.5-6.2c0-1.7,0.9-3.2,2.8-3.2c0.6,0,1.2,0.1,1.7,0.4L44,28.9z"/>
	<path class="st0" d="M55.9,26.9v9.1c0,1.6,0.5,1.9,1.2,1.9c1.1,0,1.2-0.7,1.3-1.7v-9.3H60v8.8c0,1.6,0,3.8-2.9,3.8
		c-2.6,0-2.9-1.8-2.9-4v-8.6H55.9z"/>
	<path class="st0" d="M70.3,26.9h2c1.2,0,3.1,0.1,3.1,3.2c0,1.2-0.3,3-1.7,3.2l2.3,6.1h-1.7l-2.2-6.1h0v6.1h-1.7V26.9z M73.6,30.5
		c0-1.2-0.1-2.2-1.4-2.1h-0.3v4.1C73.1,32.5,73.6,31.7,73.6,30.5z"/>
	<path class="st0" d="M91.3,32.8V33c0,2.4,0.3,6.5-3,6.5c-3,0-3.3-2.8-3.3-6.4c0-3.5,0.3-6.4,3.2-6.4c1.8,0,2.6,0.9,3,2.5L89.7,30
		c-0.2-0.8-0.4-1.6-1.4-1.6c-1.4,0-1.5,1.8-1.5,4.9c0,4.3,0.7,4.8,1.5,4.8c0.7,0,1.4-0.1,1.4-3.1v-0.7h-1.4v-1.4H91.3z"/>
	<path class="st0" d="M105.7,26.9v1.4h-2.8v3.9h2.5v1.4h-2.5V38h2.8v1.4h-4.4V26.9H105.7z"/>
	<path class="st0" d="M115.2,26.9h2c1.2,0,3.1,0.1,3.1,3.2c0,1.2-0.3,3-1.7,3.2l2.3,6.1h-1.7l-2.2-6.1h0v6.1h-1.7V26.9z M118.5,30.5
		c0-1.2-0.1-2.2-1.4-2.1h-0.3v4.1C118.1,32.5,118.5,31.7,118.5,30.5z"/>
	<path class="st0" d="M130.8,26.9l1.5,5.8h0l0.3-1.6l1.1-4.2h1.8l-2.3,7.1v5.4h-1.7V34l-2.5-7.1H130.8z"/>
</g>
</svg>
