<?xml version="1.0" encoding="utf-8"?>
<!-- Generator: Adobe Illustrator 24.0.0, SVG Export Plug-In . SVG Version: 6.00 Build 0)  -->
<svg version="1.1" id="Layer_1" xmlns="http://www.w3.org/2000/svg" xmlns:xlink="http://www.w3.org/1999/xlink" x="0px" y="0px"
	 viewBox="0 0 243.7 31.7" style="enable-background:new 0 0 243.7 31.7;" xml:space="preserve">
<style type="text/css">
	.st0{fill:#018BAF;}
	.st1{fill:#6FBACF;}
</style>
<g>
	<path class="st0" d="M8.8,31c-1.4,0-2.9,0-4.3-0.1c-1.5-0.1-2.7-0.3-3.8-0.6V4c0.6-0.1,1.2-0.2,1.8-0.3c0.7-0.1,1.3-0.2,2-0.2
		c0.7-0.1,1.3-0.1,2-0.1c0.7,0,1.3,0,1.9,0c1.6,0,3.2,0.1,4.6,0.4c1.4,0.2,2.6,0.7,3.7,1.2c1,0.6,1.8,1.3,2.4,2.3
		c0.6,0.9,0.9,2.1,0.9,3.5c0,1.3-0.3,2.4-0.9,3.3c-0.6,0.9-1.5,1.6-2.6,2.2c1.6,0.5,2.9,1.4,3.6,2.4c0.8,1.1,1.2,2.4,1.2,4.1
		c0,2.8-1,4.9-3.1,6.3C16.1,30.3,13,31,8.8,31z M5.5,14.6h3.5c1.9,0,3.3-0.3,4.4-0.8c1.1-0.5,1.6-1.5,1.6-2.9c0-1.3-0.6-2.2-1.7-2.8
		C12.2,7.6,10.8,7.3,9,7.3c-0.8,0-1.4,0-2,0c-0.6,0-1.1,0.1-1.5,0.1V14.6z M5.5,18.5v8.3c0.5,0.1,1.1,0.1,1.8,0.1c0.6,0,1.2,0,1.7,0
		c1,0,2-0.1,2.8-0.2c0.9-0.1,1.6-0.4,2.3-0.7c0.6-0.3,1.1-0.8,1.5-1.3c0.4-0.5,0.6-1.3,0.6-2.1c0-1.5-0.6-2.6-1.7-3.2
		c-1.1-0.6-2.7-0.9-4.7-0.9H5.5z"/>
	<path class="st0" d="M34.5,31c-1.4,0-2.9,0-4.3-0.1c-1.5-0.1-2.7-0.3-3.8-0.6V4c0.6-0.1,1.2-0.2,1.8-0.3c0.7-0.1,1.3-0.2,2-0.2
		c0.7-0.1,1.3-0.1,2-0.1c0.7,0,1.3,0,1.9,0c1.6,0,3.2,0.1,4.6,0.4c1.4,0.2,2.6,0.7,3.7,1.2c1,0.6,1.8,1.3,2.4,2.3
		c0.6,0.9,0.9,2.1,0.9,3.5c0,1.3-0.3,2.4-0.9,3.3c-0.6,0.9-1.5,1.6-2.6,2.2c1.6,0.5,2.9,1.4,3.6,2.4c0.8,1.1,1.2,2.4,1.2,4.1
		c0,2.8-1,4.9-3.1,6.3C41.8,30.3,38.7,31,34.5,31z M31.2,14.6h3.5c1.9,0,3.3-0.3,4.4-0.8c1.1-0.5,1.6-1.5,1.6-2.9
		c0-1.3-0.6-2.2-1.7-2.8c-1.1-0.5-2.5-0.8-4.3-0.8c-0.8,0-1.4,0-2,0c-0.6,0-1.1,0.1-1.5,0.1V14.6z M31.2,18.5v8.3
		c0.5,0.1,1.1,0.1,1.8,0.1c0.6,0,1.2,0,1.7,0c1,0,2-0.1,2.8-0.2c0.9-0.1,1.6-0.4,2.3-0.7c0.6-0.3,1.1-0.8,1.5-1.3
		c0.4-0.5,0.6-1.3,0.6-2.1c0-1.5-0.6-2.6-1.7-3.2c-1.1-0.6-2.7-0.9-4.7-0.9H31.2z"/>
	<path class="st0" d="M58.6,27c1.8,0,3.1-0.3,3.9-0.9c0.8-0.6,1.2-1.4,1.2-2.5c0-0.7-0.1-1.2-0.4-1.7c-0.3-0.5-0.7-0.9-1.2-1.3
		c-0.5-0.4-1.1-0.7-1.9-1.1c-0.7-0.3-1.6-0.6-2.5-1c-0.9-0.3-1.8-0.7-2.7-1.1c-0.9-0.4-1.6-0.9-2.3-1.5c-0.7-0.6-1.2-1.3-1.6-2.2
		c-0.4-0.8-0.6-1.8-0.6-3c0-2.5,0.8-4.4,2.5-5.8C54.7,3.7,57,3,59.9,3c1.7,0,3.2,0.2,4.5,0.6c1.3,0.4,2.4,0.8,3.1,1.2l-1.5,4
		c-0.9-0.5-1.9-0.9-2.9-1.1c-1.1-0.3-2.1-0.4-3.3-0.4c-1.3,0-2.4,0.3-3.1,0.8c-0.7,0.5-1.1,1.3-1.1,2.3c0,0.6,0.1,1.1,0.4,1.5
		c0.2,0.4,0.6,0.8,1.1,1.2c0.5,0.3,1,0.7,1.6,0.9c0.6,0.3,1.3,0.6,2,0.8c1.3,0.5,2.4,0.9,3.4,1.4c1,0.5,1.9,1.1,2.5,1.7
		c0.7,0.7,1.2,1.4,1.6,2.3c0.4,0.9,0.5,2,0.5,3.3c0,2.5-0.9,4.3-2.6,5.7c-1.7,1.3-4.3,2-7.6,2c-1.1,0-2.1-0.1-3.1-0.2
		c-0.9-0.1-1.7-0.3-2.5-0.5c-0.7-0.2-1.3-0.4-1.9-0.6c-0.5-0.2-0.9-0.4-1.3-0.6l1.4-4c0.7,0.4,1.7,0.8,2.9,1.2
		C55.4,26.8,56.9,27,58.6,27z"/>
	<path class="st0" d="M78.2,28.1c0,0.9-0.3,1.7-0.9,2.2c-0.6,0.6-1.3,0.9-2.2,0.9c-0.9,0-1.6-0.3-2.2-0.9c-0.6-0.6-0.9-1.3-0.9-2.2
		s0.3-1.7,0.9-2.2c0.6-0.6,1.3-0.9,2.2-0.9c0.9,0,1.6,0.3,2.2,0.9C77.9,26.4,78.2,27.2,78.2,28.1z"/>
	<path class="st1" d="M91,3.3c3.9,0,6.9,0.7,9,2.2c2.1,1.4,3.1,3.6,3.1,6.6c0,3.7-1.8,6.2-5.4,7.5c0.5,0.6,1.1,1.3,1.7,2.2
		c0.6,0.9,1.3,1.8,1.9,2.8c0.7,1,1.3,2,1.9,3.1c0.6,1.1,1.1,2.1,1.6,3.1h-5.5c-0.5-0.9-1-1.9-1.6-2.8c-0.6-1-1.2-1.9-1.7-2.8
		s-1.2-1.7-1.7-2.5c-0.6-0.8-1.1-1.5-1.6-2.1c-0.4,0-0.7,0-0.9,0c-0.3,0-0.5,0-0.7,0h-2.4v10.2h-4.9V4c1.2-0.3,2.5-0.4,3.8-0.5
		C88.7,3.4,89.9,3.3,91,3.3z M91.3,7.6c-1,0-2,0-2.9,0.1v8.8h2.2c1.2,0,2.3-0.1,3.2-0.2c0.9-0.1,1.7-0.4,2.3-0.7
		c0.6-0.3,1.1-0.8,1.4-1.4c0.3-0.6,0.5-1.3,0.5-2.2c0-0.8-0.2-1.5-0.5-2.1c-0.3-0.6-0.8-1-1.3-1.4c-0.6-0.3-1.3-0.6-2.1-0.7
		C93.2,7.7,92.3,7.6,91.3,7.6z"/>
	<path class="st1" d="M107.2,20.6c0-1.8,0.3-3.4,0.8-4.7c0.5-1.4,1.2-2.5,2.1-3.4c0.9-0.9,1.9-1.6,3.1-2c1.1-0.5,2.3-0.7,3.5-0.7
		c2.8,0,5,0.9,6.6,2.6c1.6,1.7,2.4,4.4,2.4,7.8c0,0.3,0,0.6,0,0.9c0,0.3,0,0.6-0.1,0.9h-13.5c0.1,1.6,0.7,2.9,1.7,3.8
		c1,0.9,2.5,1.3,4.5,1.3c1.1,0,2.2-0.1,3.1-0.3c1-0.2,1.7-0.4,2.2-0.7l0.6,3.9c-0.3,0.1-0.6,0.3-1.1,0.4c-0.5,0.1-1,0.3-1.6,0.4
		c-0.6,0.1-1.2,0.2-1.9,0.3c-0.7,0.1-1.4,0.1-2.1,0.1c-1.8,0-3.4-0.3-4.7-0.8c-1.3-0.5-2.4-1.3-3.3-2.2c-0.9-1-1.5-2.1-1.9-3.4
		C107.4,23.5,107.2,22.1,107.2,20.6z M120.9,18.5c0-0.7-0.1-1.3-0.3-1.9c-0.2-0.6-0.4-1.1-0.8-1.5c-0.4-0.4-0.8-0.8-1.3-1
		c-0.5-0.2-1.1-0.4-1.8-0.4c-0.7,0-1.4,0.1-1.9,0.4c-0.5,0.3-1,0.6-1.4,1.1c-0.4,0.4-0.7,1-0.9,1.5c-0.2,0.6-0.4,1.2-0.4,1.8H120.9z
		"/>
	<path class="st1" d="M135.8,27.3c1.3,0,2.2-0.1,2.7-0.4c0.6-0.3,0.9-0.8,0.9-1.5c0-0.7-0.3-1.2-0.9-1.7c-0.6-0.4-1.6-0.9-3-1.4
		c-0.9-0.3-1.6-0.6-2.4-1c-0.7-0.4-1.3-0.8-1.9-1.2c-0.5-0.5-0.9-1-1.2-1.7c-0.3-0.7-0.4-1.5-0.4-2.4c0-1.9,0.7-3.4,2.1-4.4
		c1.4-1.1,3.3-1.6,5.6-1.6c1.2,0,2.3,0.1,3.4,0.3c1.1,0.2,1.9,0.4,2.5,0.6l-0.9,3.8c-0.5-0.2-1.2-0.4-2-0.6
		c-0.8-0.2-1.7-0.3-2.8-0.3c-1,0-1.7,0.2-2.3,0.5c-0.6,0.3-0.9,0.8-0.9,1.5c0,0.3,0.1,0.6,0.2,0.9c0.1,0.3,0.3,0.5,0.6,0.7
		c0.3,0.2,0.7,0.4,1.1,0.7c0.5,0.2,1,0.4,1.7,0.7c1.1,0.4,2.1,0.8,2.9,1.2c0.8,0.4,1.4,0.9,1.9,1.4c0.5,0.5,0.9,1.1,1.1,1.7
		c0.2,0.7,0.4,1.4,0.4,2.3c0,2-0.7,3.4-2.2,4.4c-1.4,1-3.5,1.5-6.2,1.5c-1.8,0-3.2-0.2-4.3-0.4c-1.1-0.3-1.9-0.5-2.3-0.7l0.8-3.9
		c0.7,0.3,1.5,0.6,2.5,0.8C133.4,27.2,134.5,27.3,135.8,27.3z"/>
	<path class="st1" d="M147.4,20.6c0-1.8,0.3-3.4,0.8-4.7c0.5-1.4,1.2-2.5,2.1-3.4c0.9-0.9,1.9-1.6,3.1-2c1.1-0.5,2.3-0.7,3.5-0.7
		c2.8,0,5,0.9,6.6,2.6c1.6,1.7,2.4,4.4,2.4,7.8c0,0.3,0,0.6,0,0.9c0,0.3,0,0.6-0.1,0.9h-13.5c0.1,1.6,0.7,2.9,1.7,3.8
		c1,0.9,2.5,1.3,4.5,1.3c1.1,0,2.2-0.1,3.1-0.3c1-0.2,1.7-0.4,2.2-0.7l0.6,3.9c-0.3,0.1-0.6,0.3-1.1,0.4c-0.5,0.1-1,0.3-1.6,0.4
		c-0.6,0.1-1.2,0.2-1.9,0.3c-0.7,0.1-1.4,0.1-2.1,0.1c-1.8,0-3.4-0.3-4.7-0.8c-1.3-0.5-2.4-1.3-3.3-2.2c-0.9-1-1.5-2.1-1.9-3.4
		C147.6,23.5,147.4,22.1,147.4,20.6z M161.1,18.5c0-0.7-0.1-1.3-0.3-1.9c-0.2-0.6-0.4-1.1-0.8-1.5c-0.4-0.4-0.8-0.8-1.3-1
		c-0.5-0.2-1.1-0.4-1.8-0.4c-0.7,0-1.4,0.1-1.9,0.4c-0.5,0.3-1,0.6-1.4,1.1c-0.4,0.4-0.7,1-0.9,1.5c-0.2,0.6-0.4,1.2-0.4,1.8H161.1z
		"/>
	<path class="st1" d="M177.7,9.7c1.6,0,2.9,0.2,4,0.6c1.1,0.4,1.9,0.9,2.6,1.6c0.6,0.7,1.1,1.6,1.4,2.6c0.3,1,0.4,2.1,0.4,3.3v12.4
		c-0.7,0.2-1.8,0.3-3.3,0.6c-1.5,0.2-3.1,0.3-5,0.3c-1.2,0-2.3-0.1-3.4-0.4c-1-0.2-1.9-0.6-2.6-1.1c-0.7-0.5-1.3-1.2-1.7-2
		c-0.4-0.8-0.6-1.9-0.6-3.1c0-1.2,0.2-2.2,0.7-3c0.5-0.8,1.1-1.5,1.9-2c0.8-0.5,1.7-0.9,2.7-1.1c1-0.2,2.1-0.3,3.2-0.3
		c0.5,0,1.1,0,1.6,0.1c0.6,0.1,1.2,0.2,1.8,0.3v-0.8c0-0.5-0.1-1.1-0.2-1.6c-0.1-0.5-0.4-0.9-0.7-1.3c-0.3-0.4-0.8-0.7-1.3-0.9
		c-0.5-0.2-1.2-0.3-2-0.3c-1.1,0-2.1,0.1-3,0.2c-0.9,0.2-1.7,0.3-2.2,0.5l-0.6-3.8c0.6-0.2,1.5-0.4,2.6-0.6
		C175.1,9.8,176.4,9.7,177.7,9.7z M178,27.4c1.5,0,2.6-0.1,3.3-0.2v-5.2c-0.3-0.1-0.6-0.2-1.1-0.2c-0.5-0.1-1-0.1-1.6-0.1
		c-0.5,0-1,0-1.6,0.1c-0.5,0.1-1,0.2-1.4,0.4c-0.4,0.2-0.8,0.5-1,0.9c-0.3,0.4-0.4,0.9-0.4,1.4c0,1.1,0.4,1.9,1.1,2.3
		C175.9,27.2,176.8,27.4,178,27.4z"/>
	<path class="st1" d="M203.4,14.5c-0.4-0.1-0.9-0.3-1.6-0.4c-0.7-0.1-1.5-0.2-2.4-0.2c-0.5,0-1.1,0.1-1.7,0.2
		c-0.6,0.1-1,0.2-1.2,0.3v16.4h-4.7V11.2c0.9-0.3,2.1-0.7,3.4-1c1.4-0.3,2.9-0.4,4.6-0.4c0.3,0,0.7,0,1.1,0.1c0.4,0,0.8,0.1,1.3,0.2
		c0.4,0.1,0.8,0.1,1.2,0.2c0.4,0.1,0.7,0.2,0.9,0.3L203.4,14.5z"/>
	<path class="st1" d="M206.4,20.5c0-1.5,0.2-2.9,0.7-4.2c0.5-1.3,1.1-2.5,2-3.4c0.9-1,1.9-1.7,3.2-2.3c1.3-0.5,2.7-0.8,4.2-0.8
		c1.9,0,3.8,0.4,5.5,1.1l-1,3.9c-0.5-0.2-1.2-0.4-1.9-0.6c-0.7-0.2-1.4-0.2-2.2-0.2c-1.9,0-3.3,0.6-4.2,1.7c-1,1.2-1.4,2.8-1.4,4.9
		c0,2,0.5,3.6,1.4,4.8c0.9,1.2,2.5,1.8,4.6,1.8c0.8,0,1.6-0.1,2.4-0.2c0.8-0.2,1.5-0.4,2-0.6l0.7,3.9c-0.5,0.3-1.3,0.5-2.4,0.7
		c-1.1,0.2-2.1,0.3-3.3,0.3c-1.7,0-3.3-0.3-4.6-0.8c-1.3-0.5-2.4-1.3-3.2-2.2c-0.8-1-1.5-2.1-1.9-3.4
		C206.6,23.5,206.4,22,206.4,20.5z"/>
	<path class="st1" d="M226,30.7V1.1l4.7-0.8v10.1c0.5-0.2,1.1-0.3,1.8-0.5c0.7-0.1,1.4-0.2,2.1-0.2c1.6,0,3,0.2,4.1,0.7
		c1.1,0.5,1.9,1.1,2.6,1.9c0.7,0.8,1.1,1.8,1.4,3c0.3,1.1,0.4,2.4,0.4,3.8v11.5h-4.7V19.9c0-1.1-0.1-2-0.2-2.8
		c-0.1-0.8-0.4-1.4-0.7-1.9c-0.3-0.5-0.8-0.8-1.3-1.1c-0.5-0.2-1.2-0.3-2-0.3c-0.6,0-1.3,0.1-1.9,0.2c-0.7,0.1-1.1,0.2-1.4,0.4v16.3
		H226z"/>
</g>
</svg>
